<?xml version="1.0" encoding="UTF-8" standalone="no"?>
<!-- Created with Inkscape (http://www.inkscape.org/) -->

<svg
   xmlns:dc="http://purl.org/dc/elements/1.1/"
   xmlns:cc="http://creativecommons.org/ns#"
   xmlns:rdf="http://www.w3.org/1999/02/22-rdf-syntax-ns#"
   xmlns:svg="http://www.w3.org/2000/svg"
   xmlns="http://www.w3.org/2000/svg"
   xmlns:xlink="http://www.w3.org/1999/xlink"
   xmlns:sodipodi="http://sodipodi.sourceforge.net/DTD/sodipodi-0.dtd"
   xmlns:inkscape="http://www.inkscape.org/namespaces/inkscape"
   viewBox="0 0 67.733331 67.733331"
   version="1.1"
   id="svg8"
   inkscape:version="0.92.3 (2405546, 2018-03-11)"
   sodipodi:docname="Sharingan.svg">
  <defs
     id="defs2">
    <linearGradient
       inkscape:collect="always"
       id="innoGrad1">
      <stop
         style="stop-color:#ff5555;stop-opacity:1"
         offset="0"
         id="stop4610" />
      <stop
         style="stop-color:#ff2a2a;stop-opacity:1"
         offset="1"
         id="stop4612" />
    </linearGradient>
    <radialGradient
       inkscape:collect="always"
       xlink:href="#innoGrad1"
       id="radialGradient4616"
       cx="106.96725"
       cy="143.16368"
       fx="106.96725"
       fy="143.16368"
       r="62.17709"
       gradientUnits="userSpaceOnUse"
       gradientTransform="matrix(0.47914438,0,0,0.47914438,18.899609,135.007)" />
  </defs>
  <sodipodi:namedview
     id="base"
     pagecolor="#ffffff"
     bordercolor="#666666"
     borderopacity="1.0"
     inkscape:pageopacity="0.0"
     inkscape:pageshadow="2"
     inkscape:zoom="1.26"
     inkscape:cx="28.658126"
     inkscape:cy="83.176077"
     inkscape:document-units="mm"
     inkscape:current-layer="layer1"
     showgrid="false"
     inkscape:snap-object-midpoints="true"
     inkscape:snap-midpoints="false"
     inkscape:object-paths="true"
     inkscape:object-nodes="false"
     inkscape:snap-nodes="true"
     inkscape:snap-intersection-paths="false"
     inkscape:window-width="1366"
     inkscape:window-height="705"
     inkscape:window-x="-8"
     inkscape:window-y="-8"
     inkscape:window-maximized="1" />
  <metadata
     id="metadata5">
    <rdf:RDF>
      <cc:Work
         rdf:about="">
        <dc:format>image/svg+xml</dc:format>
        <dc:type
           rdf:resource="http://purl.org/dc/dcmitype/StillImage" />
        <dc:title />
      </cc:Work>
    </rdf:RDF>
  </metadata>
  <g
     inkscape:label="Layer 1"
     inkscape:groupmode="layer"
     id="layer1"
     style="display:inline"
     transform="translate(-36.285702,-169.73641)">
    <ellipse
       style="fill:none;stroke-width:0.12677361"
       id="path12"
       cx="64.719215"
       cy="187.48471"
       rx="5.9764705"
       ry="4.3465242" />
    <path
       style="fill:#000000;stroke-width:0.12677361"
       id="path26"
       sodipodi:type="arc"
       sodipodi:cx="70.152367"
       sodipodi:cy="203.60307"
       sodipodi:rx="33.866665"
       sodipodi:ry="33.866665"
       sodipodi:start="0"
       sodipodi:end="6.2828188"
       d="m 104.01903,203.60307 a 33.866665,33.866665 0 0 1 -33.86356,33.86667 33.866665,33.866665 0 0 1 -33.869768,-33.86046 33.866665,33.866665 0 0 1 33.857355,-33.87287 33.866665,33.866665 0 0 1 33.875973,33.85425 l -33.866663,0.0124 z" />
    <circle
       style="fill:url(#radialGradient4616);fill-opacity:1;stroke:none;stroke-width:0.13497902"
       id="path32"
       cx="70.152367"
       cy="203.60307"
       r="29.791803" />
    <circle
       style="opacity:1;fill:none;stroke:#ff2a2a;stroke-width:1.55206406;stroke-miterlimit:4;stroke-dasharray:none;stroke-opacity:1"
       id="path4556"
       cx="70.152367"
       cy="203.60307"
       r="17.700857" />
    <circle
       style="opacity:1;fill:#000000;stroke:none;stroke-width:2.90601063;stroke-miterlimit:4;stroke-dasharray:none"
       id="path4618"
       cx="70.152367"
       cy="203.60307"
       r="5.8030176" />
    <path
       style="opacity:1;fill:#000000;stroke:#000000;stroke-width:0.67848158;stroke-miterlimit:4;stroke-dasharray:none;stroke-opacity:1"
       d="m 66.374156,214.73892 c -0.08735,0.70915 -0.549027,1.70203 -1.180693,2.53918 -0.667246,0.88431 -1.461953,1.62292 -2.443587,2.27108 -3.355775,2.21576 -7.725153,2.50125 -12.20964,0.79778 -0.626413,-0.23795 -0.901791,-0.35431 -1.537744,-0.64971 -0.65589,-0.30469 -1.976909,-1.00931 -1.947453,-1.03877 0.0055,-0.005 0.08283,0.008 0.171677,0.0314 0.08884,0.0229 0.314705,0.0639 0.501915,0.0911 0.411452,0.0598 1.247453,0.0449 1.687114,-0.0302 1.579627,-0.27003 3.309237,-1.0955 5.058403,-2.41414 0.816972,-0.61589 1.649017,-1.34129 1.674191,-1.45961 0.274117,-1.28838 0.655347,-2.2565 1.228274,-3.1192 0.932358,-1.40392 2.296137,-2.38033 3.923718,-2.80924 0.617315,-0.16266 0.787507,-0.15777 1.366495,0.0394 1.028134,0.34998 1.740514,0.78572 2.391725,1.46291 0.670964,0.69771 1.0898,1.56612 1.275828,2.64526 0.05475,0.31762 0.07911,1.32343 0.03977,1.64273 z"
       id="path4640"
       inkscape:connector-curvature="0" />
    <path
       style="display:inline;opacity:1;fill:#000000;stroke:#000000;stroke-width:0.67848158;stroke-miterlimit:4;stroke-dasharray:none;stroke-opacity:1"
       d="m 80.679682,199.18495 c 0.56321,-0.43967 1.591746,-0.8153 2.630344,-0.96059 1.097121,-0.15348 2.181333,-0.11386 3.333767,0.12205 3.939673,0.8061 7.231166,3.69384 9.197642,8.06939 0.274689,0.6112 0.387133,0.88819 0.627933,1.54677 0.248345,0.67922 0.684198,2.11157 0.642542,2.11157 -0.0079,0 -0.0525,-0.0646 -0.09913,-0.14366 -0.04663,-0.079 -0.177332,-0.26772 -0.290438,-0.41937 -0.248585,-0.33329 -0.850337,-0.91382 -1.214382,-1.17156 -1.30791,-0.92602 -3.11462,-1.56534 -5.283884,-1.86978 -1.01319,-0.14217 -2.114469,-0.21759 -2.215928,-0.15172 -1.104859,0.71718 -2.058993,1.13218 -3.074138,1.33709 -1.651998,0.33343 -3.306762,0.0596 -4.760913,-0.78808 -0.551529,-0.32147 -0.668411,-0.44529 -0.938442,-0.99406 -0.479514,-0.97449 -0.675134,-1.78633 -0.656758,-2.72565 0.01893,-0.96781 0.336809,-1.87802 0.96834,-2.77262 0.18587,-0.26332 0.879877,-0.99176 1.133459,-1.18971 z"
       id="path4640-1"
       inkscape:connector-curvature="0" />
    <path
       style="display:inline;opacity:1;fill:#000000;stroke:#000000;stroke-width:0.67848158;stroke-miterlimit:4;stroke-dasharray:none;stroke-opacity:1"
       d="m 60.24835,196.03834 c -0.570465,-0.43023 -1.19949,-1.32649 -1.608645,-2.2921 -0.432214,-1.02001 -0.674508,-2.07755 -0.745013,-3.25174 -0.241017,-4.01407 1.696424,-7.94081 5.41392,-10.97276 0.519274,-0.42352 0.757724,-0.60383 1.331542,-1.00687 0.591803,-0.41567 1.862536,-1.2074 1.873313,-1.16716 0.0021,0.008 -0.04885,0.0675 -0.113105,0.13294 -0.06426,0.0655 -0.212707,0.24058 -0.32991,0.38909 -0.257599,0.32637 -0.662607,1.05787 -0.817375,1.4762 -0.555953,1.50301 -0.70589,3.41363 -0.438495,5.58777 0.124887,1.01546 0.337083,2.09874 0.426963,2.1797 0.978712,0.88158 1.626516,1.6958 2.087171,2.62332 0.749654,1.5094 0.913359,3.17867 0.471004,4.80265 -0.167772,0.61595 -0.257114,0.7609 -0.717313,1.16376 -0.817174,0.71539 -1.550715,1.11446 -2.462787,1.33982 -0.939724,0.23222 -1.901198,0.16073 -2.928781,-0.21773 -0.302436,-0.11135 -1.185685,-0.59321 -1.442519,-0.78693 z"
       id="path4640-12"
       inkscape:connector-curvature="0" />
  </g>
</svg>
